<svg xmlns="http://www.w3.org/2000/svg" width="8.736" height="52.224" viewBox="0 0 8.736 52.224">
  <path id="パス_1" data-name="パス 1" d="M3.792.168c2.5,0,3.72-1.248,3.72-2.712,0-3.1-4.764-2.136-4.764-3.42,0-.42.36-.756,1.356-.756a4.963,4.963,0,0,1,2.328.648l.732-1.764a6.291,6.291,0,0,0-3.048-.732C1.62-8.568.4-7.344.4-5.844c0,3.12,4.776,2.148,4.776,3.48,0,.408-.384.684-1.368.684a5.3,5.3,0,0,1-2.772-.828L.252-.756A6.616,6.616,0,0,0,3.792.168Zm9.456,0A4.443,4.443,0,0,0,16.86-1.416L15.348-2.784a2.483,2.483,0,0,1-1.98.984,2.252,2.252,0,0,1-2.34-2.4,2.252,2.252,0,0,1,2.34-2.4,2.483,2.483,0,0,1,1.98.984L16.86-6.984a4.443,4.443,0,0,0-3.612-1.584A4.344,4.344,0,0,0,8.628-4.2,4.344,4.344,0,0,0,13.248.168ZM23.568,0h2.544L24.3-2.64a2.787,2.787,0,0,0,1.644-2.652c0-1.92-1.44-3.108-3.732-3.108h-3.84V0h2.376V-2.232h1.3Zm-.024-5.292c0,.768-.492,1.224-1.476,1.224h-1.32v-2.46h1.32C23.052-6.528,23.544-6.072,23.544-5.292Zm8.4,5.46A4.393,4.393,0,0,0,36.612-4.2a4.393,4.393,0,0,0-4.668-4.368A4.393,4.393,0,0,0,27.276-4.2,4.393,4.393,0,0,0,31.944.168Zm0-1.968a2.249,2.249,0,0,1-2.268-2.4,2.249,2.249,0,0,1,2.268-2.4,2.249,2.249,0,0,1,2.268,2.4A2.249,2.249,0,0,1,31.944-1.8ZM38.316,0H44.7V-1.884H40.692V-8.4H38.316Zm7.776,0h6.384V-1.884H48.468V-8.4H46.092Z" transform="translate(8.568 52.476) rotate(-90)"/>
</svg>
